<svg xmlns="http://www.w3.org/2000/svg" width="24" height="24" fill="none" viewBox="0 0 24 24">
  <path fill="#989898" fill-rule="evenodd" d="M10.3 2.188a1 1 0 0 1 1.174.788l.285 1.45a6.338 6.338 0 0 1 6.246 5.148l.348 1.763c.17.863.59 1.322 1.078 1.743.062.054.138.117.221.186.2.166.441.366.62.545.291.29.608.694.72 1.262l.009.049c.05.25.134.673.097 1.057a1.555 1.555 0 0 1-.311.816 1.452 1.452 0 0 1-.88.527l-3.649.718a4.297 4.297 0 0 1-7.999 1.576l-1.033.204a1.453 1.453 0 0 1-1.015-.154 1.556 1.556 0 0 1-.597-.636c-.18-.342-.263-.766-.311-1.016l-.01-.049c-.112-.567.028-1.06.186-1.44.098-.234.245-.51.368-.74.05-.095.097-.182.134-.255.292-.575.507-1.159.337-2.022l-.347-1.763a6.338 6.338 0 0 1 3.826-7.133l-.286-1.45a1 1 0 0 1 .788-1.174Zm.843 4.284a4.338 4.338 0 0 0-3.212 5.077l.001.007.348 1.766c.291 1.478-.122 2.537-.515 3.313-.086.168-.156.3-.217.412-.092.172-.16.3-.224.45-.084.2-.072.264-.069.282l.038.19 1.325-.262a.82.82 0 0 1 .038-.008l6.432-1.267a1 1 0 0 1 .039-.007l3.939-.776-.037-.19c-.003-.017-.017-.08-.17-.234a4.958 4.958 0 0 0-.379-.331c-.098-.082-.213-.176-.356-.3-.659-.568-1.442-1.392-1.734-2.87l-.349-1.772a4.338 4.338 0 0 0-4.898-3.48Zm-.7 12.914a2.304 2.304 0 0 0 1.997.56 2.298 2.298 0 0 0 1.634-1.275l-3.63.715Zm-4.171-15.1a1 1 0 0 1 .054 1.412 7.458 7.458 0 0 0-1.985 5.039 1 1 0 1 1-2-.008 9.457 9.457 0 0 1 2.518-6.39 1 1 0 0 1 1.413-.054Z" clip-rule="evenodd"/>
</svg>
