<svg xmlns="http://www.w3.org/2000/svg" width="24" height="24" fill="none" viewBox="0 0 24 24">
  <path fill="#989898" fill-rule="evenodd" d="M8.298 4.288a1 1 0 0 1 1.414.01l2.715 2.751c.351-.032.71-.049 1.073-.049a9.027 9.027 0 0 1 .582.019c2.075.134 3.8.966 5.079 1.862 1.391.975 2.308 2.06 2.65 2.534a1 1 0 0 1 0 1.17c-.342.474-1.259 1.56-2.65 2.534-1.28.896-3.006 1.73-5.083 1.863a9.065 9.065 0 0 1-.777.017c-.187.294-.449.688-.746 1.086a8.923 8.923 0 0 1-1.022 1.175 3.538 3.538 0 0 1-.629.477A1.825 1.825 0 0 1 10 20H8.5c-1.648 0-2.589-1.881-1.6-3.2l.005-.006.945-1.24a9.683 9.683 0 0 1-.161-.093c-.752-.443-1.396-.96-1.864-1.516a4.69 4.69 0 0 1-.158-.198l-1.96 1.96a1 1 0 0 1-1.414-1.414L4.586 12 2.293 9.707a1 1 0 0 1 1.414-1.414l1.96 1.96a4.69 4.69 0 0 1 .158-.198C6.293 9.5 6.937 8.982 7.689 8.54a10.94 10.94 0 0 1 2.38-1.032L8.29 5.702a1 1 0 0 1 .009-1.414ZM12.18 9.09c-1.353.183-2.557.63-3.477 1.172-.605.357-1.06.74-1.35 1.084-.307.363-.354.59-.354.655 0 .065.047.292.354.655.29.345.745.727 1.35 1.084a8.43 8.43 0 0 0 1.082.534 9.81 9.81 0 0 0 2.549.657c-.402-.937-.626-1.84-.627-2.794-.002-1.004.244-1.997.689-3.074a9.997 9.997 0 0 0-.216.027Zm2.398-.006c-.617 1.281-.872 2.209-.871 3.05 0 .823.248 1.669.84 2.788 1.356-.204 2.526-.782 3.465-1.44A10.473 10.473 0 0 0 19.703 12c-.384-.42-.957-.967-1.69-1.48-.932-.654-2.091-1.228-3.434-1.437ZM9.73 16.385 8.5 18h1.412c.056-.033.144-.097.26-.206.241-.223.513-.547.78-.905l.106-.144a11.66 11.66 0 0 1-1.327-.36Zm.145 1.634Zm5.11-6.391a1 1 0 0 1 1-1h.01a1 1 0 1 1 0 2h-.01a1 1 0 0 1-1-1Z" clip-rule="evenodd"/>
</svg>
