<svg xmlns="http://www.w3.org/2000/svg" width="24" height="24" fill="none" viewBox="0 0 24 24">
  <path fill="#989898" fill-rule="evenodd" d="M13.028 5.345V8a1 1 0 0 1-.924.997c-2.476.19-4.486 1.217-5.709 2.845-.633.842-1.083 1.883-1.265 3.117.563-.65 1.206-1.22 1.842-1.7a14.477 14.477 0 0 1 2.738-1.621c.823-.368 1.673-.638 2.318-.638a1 1 0 0 1 1 1v2.322l4.95-4.352a.2.2 0 0 0 0-.273l-4.95-4.352Zm1.185-1.621a1.826 1.826 0 0 0-2.163-.218c-.629.368-1.022 1.07-1.022 1.862V7.11c-2.553.393-4.775 1.59-6.232 3.531-1.639 2.182-2.21 5.167-1.374 8.67a1 1 0 0 0 1.973-.233c0-1.481 1.147-2.99 2.78-4.22a12.476 12.476 0 0 1 2.35-1.393c.181-.08.35-.15.503-.207V14.3c0 .791.393 1.494 1.022 1.863a1.823 1.823 0 0 0 2.164-.22l5.106-4.489a2.199 2.199 0 0 0 0-3.241l-5.106-4.488-.001-.001Z" clip-rule="evenodd"/>
</svg>
