<svg xmlns="http://www.w3.org/2000/svg" width="24" height="24" fill="none" viewBox="0 0 24 24">
  <path fill="#989898" fill-rule="evenodd" d="M16 6.566c-.364.658-.7 1.278-.92 1.686a2 2 0 0 1-1.612 1.045l-4.87.367 3.578 2.877a2 2 0 0 1 .685 2.051l-1.109 4.366L16 16.52V6.565Zm0-3.513V3.03v.023Zm2-.027v13.496c0 .717-.384 1.378-1.005 1.734l-4.248 2.437c-1.532.879-3.368-.515-2.933-2.228l1.108-4.365-3.577-2.878C5.932 10.086 6.64 7.806 8.45 7.67l4.869-.367h.001a170.08 170.08 0 0 1 1.689-3.06c.305-.534.597-1.032.817-1.375a4.38 4.38 0 0 1 .326-.458c.03-.034.073-.082.127-.131.037-.033.158-.142.345-.212a1.011 1.011 0 0 1 1.138.296c.24.287.24.605.239.663Z" clip-rule="evenodd"/>
</svg>
