<svg xmlns="http://www.w3.org/2000/svg" width="24" height="24" fill="none" viewBox="0 0 24 24">
  <path fill="#989898" fill-rule="evenodd" d="M9.586 2.586A2 2 0 0 1 11 2h2a2 2 0 0 1 2 2v.089l.473.196.063-.063a2.002 2.002 0 0 1 2.828 0l1.414 1.414a2 2 0 0 1 0 2.827l-.063.064.196.473H20a2 2 0 0 1 2 2v2a2 2 0 0 1-2 2h-.089l-.196.473.063.063a2 2 0 0 1 0 2.828l-1.414 1.414a2 2 0 0 1-2.828 0l-.063-.063-.473.196V20a2 2 0 0 1-2 2h-2a2 2 0 0 1-2-2v-.089l-.473-.196-.063.063a2.002 2.002 0 0 1-2.828 0l-1.414-1.414a2 2 0 0 1 0-2.827c-.001 0 0 0 0 0l.063-.064L4.089 15H4a2 2 0 0 1-2-2v-2a2 2 0 0 1 2-2h.09l.195-.473-.063-.063a2 2 0 0 1 0-2.828l1.414-1.414a2 2 0 0 1 2.827 0l.064.063L9 4.089V4a2 2 0 0 1 .586-1.414ZM13 4h-2v.757a1 1 0 0 1-.617.924l-1.707.707a1 1 0 0 1-1.09-.216l-.535-.535L5.636 7.05l.536.536a1 1 0 0 1 .217 1.09l-.708 1.707a1 1 0 0 1-.924.617H4v2h.757a1 1 0 0 1 .924.617l.707 1.707a1 1 0 0 1-.216 1.09l-.535.535 1.413 1.415.537-.536a1 1 0 0 1 1.089-.216l1.707.707a1 1 0 0 1 .617.924V20h2v-.757a1 1 0 0 1 .617-.924l1.707-.708a1 1 0 0 1 1.09.217l.536.536 1.414-1.414-.536-.537a1 1 0 0 1-.216-1.089l.707-1.707a1 1 0 0 1 .924-.617H20v-2h-.757a1 1 0 0 1-.924-.617l-.707-1.707a1 1 0 0 1 .216-1.09l.535-.535-1.413-1.415-.537.536a1 1 0 0 1-1.089.216l-1.707-.707A1 1 0 0 1 13 4.757V4Zm-1 6a2 2 0 1 0 0 4 2 2 0 0 0 0-4Zm-4 2a4 4 0 1 1 8 0 4 4 0 0 1-8 0Z" clip-rule="evenodd"/>
</svg>
